<svg xmlns="http://www.w3.org/2000/svg" width="166" height="25" fill="none"><path fill="url(#a)" d="M62.107 12.67a16.503 16.503 0 0 0-3.806-2.64c-1.39-.697-2.702-1.244-3.787-1.941-2.15-1.396-2.226-3.696-.666-5.298 2.227-2.338 6.204-1.924 8.22.546l.876-.867C61.517.924 59.634.15 57.292.15c-9.838 0-12.787 8.448-2.968 12.879a22.336 22.336 0 0 1 3.806 2.225c2.816 2.017 2.15 7.372-2.664 7.787-2.094.17-4.796-1-5.671-3.3l-.97.98c1.54 2.395 3.957 3.602 6.393 3.81 9.4.829 11.722-7.43 6.889-11.86Z"/><path fill="url(#b)" d="M72.44.189h-4.034V24.19h4.034V.189Z"/><path fill="url(#c)" d="M95.677 18.534 77.161.19h-1.065V24.19h1.065V5.845l18.516 18.346h1.085V.189h-1.085v18.345Z"/><path fill="url(#d)" d="M13.576 1.075c3.102 0 6.07 1.169 8.259 3.262l.818-.773A13.254 13.254 0 0 0 13.576 0c-3.54 0-6.565 1.188-9.077 3.564C2.006 5.939.75 8.805.75 12.142c0 3.357 1.256 6.223 3.749 8.58 2.512 2.375 5.518 3.544 9.058 3.544 3.425 0 6.641-1.263 9.058-3.545l-.818-.773c-2.189 2.093-5.138 3.243-8.26 3.243-2.359 0-4.376-1.074-6.05-3.243-1.675-2.168-2.493-4.77-2.493-7.824 0-3.055.837-5.657 2.492-7.825 1.713-2.15 3.73-3.224 6.09-3.224Z"/><path fill="url(#e)" d="M154.446.189h-1.199L141.963 24.19h1.199l9.058-19.27 9.077 19.27h4.453L154.446.189Z"/><path fill="url(#f)" d="M34.57.189 23.284 24.19h1.18l9.077-19.27 9.058 19.27h4.453L35.749.189h-1.18Z"/><path fill="url(#g)" d="M112.292.189c-6.698 0-12.122 5.373-12.122 12.01s5.424 12.01 12.122 12.01c6.698 0 12.122-5.373 12.122-12.01S118.99.19 112.292.19Zm-.038 21.513c-1.275 0-2.455-.208-3.559-.603 1.96-1.037 3.331-3.017 3.559-5.26.228 2.243 1.598 4.204 3.558 5.26a10.432 10.432 0 0 1-3.558.603Zm4.776-3.13a4.823 4.823 0 0 1-4.776-4.11c-.324 2.319-2.341 4.11-4.777 4.11-2.664 0-4.814-2.13-4.814-4.77 0-1.32.533-2.508 1.408-3.375l8.183-8.315 8.183 8.315a4.723 4.723 0 0 1 1.408 3.375c0 2.64-2.151 4.77-4.815 4.77Z"/><path fill="url(#h)" d="m146.908.189-9.077 19.27-3.425-7.26L128.773.19h-4.453l11.285 24.002h1.199L148.107.189h-1.199Z"/><path fill="url(#i)" fill-rule="evenodd" d="m61.486 13.351-.002-.003a15.587 15.587 0 0 0-3.595-2.493c-.383-.192-.777-.38-1.171-.568-.948-.452-1.896-.905-2.7-1.422l-.003-.002c-1.273-.826-2.016-1.984-2.14-3.256-.124-1.26.375-2.493 1.312-3.457.246-.258.51-.488.786-.69-2.671.685-4.224 2.18-4.65 3.715-.558 2.008.636 4.873 5.378 7.013l.003.001c1.47.67 2.797 1.474 3.962 2.315 1.756 1.26 2.38 3.512 1.885 5.471-.412 1.625-1.587 3.054-3.483 3.679 3.328-.154 5.282-1.687 6.097-3.466.969-2.117.471-4.866-1.678-6.837Zm-11.248 7.251c1.144 1.728 3.414 2.586 5.228 2.439 4.814-.415 5.48-5.77 2.664-7.787a22.336 22.336 0 0 0-3.806-2.225C44.504 8.598 47.454.15 57.292.15c1.994 0 3.656.56 4.987 1.682a7.132 7.132 0 0 1 .665.637l-.875.867c-.196-.24-.41-.46-.64-.661-2.134-1.863-5.57-1.996-7.58.115-1.561 1.602-1.485 3.903.665 5.298.753.484 1.616.895 2.537 1.335.407.194.825.393 1.25.607a16.503 16.503 0 0 1 3.806 2.64c4.834 4.43 2.512 12.689-6.889 11.86-2.436-.208-4.852-1.415-6.394-3.81l.97-.98c.118.308.268.595.444.861Zm45.604-.608L77.015 1.34v3.064l18.827 18.654v-3.064ZM95.677.19h1.085V24.19h-1.085L77.161 5.845v18.346h-1.065V.189h1.065l18.516 18.345V.19ZM42.6 24.19h4.453L35.749.189h-1.18L23.285 24.19h1.18l9.077-19.27 9.058 19.27ZM33.96 3.648l9.223 19.62h2.419L35.166 1.112h-.014L33.96 3.648Zm-26.474.65c-1.655 2.17-2.492 4.771-2.492 7.826 0 3.054.818 5.656 2.492 7.824 1.675 2.169 3.692 3.243 6.052 3.243 3.12 0 6.07-1.15 8.259-3.243l.818.773c-.225.213-.457.416-.695.61-2.322 1.896-5.257 2.935-8.363 2.935-3.54 0-6.546-1.169-9.058-3.545C2.006 18.365.75 15.5.75 12.142c0-3.337 1.256-6.203 3.749-8.578C7.01 1.188 10.036 0 13.576 0a13.246 13.246 0 0 1 9.077 3.564l-.818.773c-2.189-2.093-5.157-3.262-8.26-3.262-2.359 0-4.376 1.074-6.089 3.224ZM8.53 1.942a11.095 11.095 0 0 0-1.76 1.782l-.013.015c-1.79 2.346-2.682 5.15-2.682 8.386 0 3.23.87 6.038 2.685 8.389.55.712 1.141 1.322 1.773 1.828-1.228-.542-2.36-1.304-3.402-2.29-2.315-2.188-3.46-4.814-3.46-7.908 0-3.074 1.144-5.701 3.461-7.91 1.04-.983 2.17-1.747 3.398-2.292Zm152.768 22.25h4.453L154.446.189h-1.199L141.963 24.19h1.199l9.058-19.27 9.077 19.27Zm-8.66-20.542 9.242 19.62h2.42L153.864 1.11h-.034l-1.193 2.538ZM106.418 21.26l1.848-.978c.645-.34 1.215-.8 1.685-1.344a5.759 5.759 0 0 1-2.474.555c-3.161 0-5.734-2.533-5.734-5.692 0-1.574.637-2.994 1.678-4.027l.004-.004 8.517-8.655c-6.038.183-10.852 5.081-10.852 11.083 0 6.117 5.001 11.089 11.202 11.089s11.202-4.972 11.202-11.089c0-6.028-4.856-10.942-10.93-11.085l8.519 8.657.004.004a5.643 5.643 0 0 1 1.677 4.027c0 3.16-2.572 5.692-5.734 5.692a5.733 5.733 0 0 1-2.463-.551 5.99 5.99 0 0 0 1.681 1.343l1.822.982-1.948.699a11.353 11.353 0 0 1-3.868.657c-1.377 0-2.662-.224-3.868-.657l-1.968-.706Zm6.665-4.73a4.816 4.816 0 0 0 3.947 2.042c2.664-.001 4.815-2.131 4.815-4.771 0-1.32-.533-2.508-1.408-3.375l-8.183-8.315-8.183 8.315a4.723 4.723 0 0 0-1.408 3.375c0 2.64 2.15 4.77 4.814 4.77a4.836 4.836 0 0 0 4.341-2.69 2.741 2.741 0 0 0 .065-.137c.181-.402.308-.833.371-1.283a4.787 4.787 0 0 0 .402 1.335l.042.087.069.134c.095.178.201.349.316.512Zm-.677.192a6.504 6.504 0 0 1-.152-.885 6.54 6.54 0 0 1-.375 1.619 6.81 6.81 0 0 1-3.184 3.642c.39.14.789.256 1.199.348.75.168 1.535.255 2.36.255.827 0 1.614-.087 2.366-.257.407-.091.805-.207 1.192-.346a6.848 6.848 0 0 1-3.188-3.658 6.5 6.5 0 0 1-.218-.718Zm22-4.524L128.773.19h-4.453l11.285 24.002h1.199L148.107.189h-1.199l-9.077 19.27-3.425-7.26Zm3.009 8.534-3.84-8.14-.001-.002-5.384-11.48h-2.42l10.418 22.158h.033l1.194-2.536ZM71.521 1.11h-2.196v22.158h2.195V1.11Zm.919-.922V24.19h-4.034V.189h4.034Zm39.852 0c-6.698 0-12.122 5.373-12.122 12.01s5.424 12.01 12.122 12.01c6.698 0 12.122-5.373 12.122-12.01S118.99.19 112.292.19Z" clip-rule="evenodd"/><defs><linearGradient id="a" x1="83.25" x2="83.25" y1="0" y2="24.588" gradientUnits="userSpaceOnUse"><stop stop-color="#EAF0F5"/><stop offset="1" stop-color="#BABCCC"/></linearGradient><linearGradient id="b" x1="83.25" x2="83.25" y1="0" y2="24.588" gradientUnits="userSpaceOnUse"><stop stop-color="#EAF0F5"/><stop offset="1" stop-color="#BABCCC"/></linearGradient><linearGradient id="c" x1="83.25" x2="83.25" y1="0" y2="24.588" gradientUnits="userSpaceOnUse"><stop stop-color="#EAF0F5"/><stop offset="1" stop-color="#BABCCC"/></linearGradient><linearGradient id="d" x1="83.25" x2="83.25" y1="0" y2="24.588" gradientUnits="userSpaceOnUse"><stop stop-color="#EAF0F5"/><stop offset="1" stop-color="#BABCCC"/></linearGradient><linearGradient id="e" x1="83.25" x2="83.25" y1="0" y2="24.588" gradientUnits="userSpaceOnUse"><stop stop-color="#EAF0F5"/><stop offset="1" stop-color="#BABCCC"/></linearGradient><linearGradient id="f" x1="83.25" x2="83.25" y1="0" y2="24.588" gradientUnits="userSpaceOnUse"><stop stop-color="#EAF0F5"/><stop offset="1" stop-color="#BABCCC"/></linearGradient><linearGradient id="g" x1="83.25" x2="83.25" y1="0" y2="24.588" gradientUnits="userSpaceOnUse"><stop stop-color="#EAF0F5"/><stop offset="1" stop-color="#BABCCC"/></linearGradient><linearGradient id="h" x1="83.25" x2="83.25" y1="0" y2="24.588" gradientUnits="userSpaceOnUse"><stop stop-color="#EAF0F5"/><stop offset="1" stop-color="#BABCCC"/></linearGradient><linearGradient id="i" x1="83.25" x2="83.25" y1="0" y2="24.588" gradientUnits="userSpaceOnUse"><stop stop-color="#fff"/><stop offset="1" stop-color="#EAF0F5"/></linearGradient></defs></svg>
