<svg width="32" height="32" viewBox="0 0 32 32" fill="none" xmlns="http://www.w3.org/2000/svg">
  <rect width="32" height="32" rx="16" fill="#080809"/>
  <g>
    <path d="M16 4C9.3689 4 4 9.36892 4 16C4 22.6311 9.3689 28 16 28C22.6311 28 28 22.6311 28 16C28 9.36892 22.6311 4 16 4ZM15.9623 25.4945C14.7002 25.4945 13.5322 25.2873 12.4396 24.8917C14.3799 23.8556 15.7363 21.8776 15.9623 19.6358C16.1884 21.8776 17.5447 23.8367 19.4851 24.8917C18.3925 25.2873 17.2245 25.4945 15.9623 25.4945ZM20.6907 22.3673C18.2794 22.3673 16.3014 20.5777 15.9623 18.2606C15.6421 20.5777 13.6452 22.3673 11.2339 22.3673C8.59654 22.3673 6.46781 20.2386 6.46781 17.6013C6.46781 16.2826 6.99528 15.0958 7.86185 14.2292L15.9623 5.92151L24.0628 14.2292C24.9294 15.0958 25.4568 16.2826 25.4568 17.6013C25.4568 20.2386 23.3281 22.3673 20.6907 22.3673Z" fill="url(#paint0_linear_8_22141)"/>
  </g>
  <path fill-rule="evenodd" clip-rule="evenodd" d="M10.1852 25.0539L12.0148 24.0769C12.6526 23.7363 13.2171 23.2778 13.6825 22.7344C12.94 23.0898 12.1093 23.2886 11.2339 23.2886C8.10415 23.2886 5.55755 20.7578 5.55755 17.6013C5.55755 16.0286 6.18779 14.6103 7.21783 13.5781L7.22207 13.5739L15.6536 4.92654C9.67613 5.10919 4.91026 10.0035 4.91026 16C4.91026 22.1119 9.8613 27.0787 16 27.0787C22.1387 27.0787 27.0897 22.1119 27.0897 16C27.0897 9.97763 22.2827 5.06702 16.269 4.92444L24.7026 13.5739L24.7068 13.5781C25.7369 14.6103 26.3671 16.0286 26.3671 17.6013C26.3671 20.7578 23.8205 23.2886 20.6907 23.2886C19.8167 23.2886 18.9902 23.0908 18.252 22.7376C18.7163 23.2764 19.279 23.7339 19.9159 24.0801L21.7199 25.061L19.7917 25.7591C18.5975 26.1915 17.3255 26.4158 15.9623 26.4158C14.5991 26.4158 13.3272 26.1915 12.1329 25.7591L10.1852 25.0539ZM16.7834 20.3272C16.8905 20.4802 17.0063 20.6266 17.13 20.7657C18.0031 21.7478 19.2719 22.3673 20.6907 22.3673C23.3281 22.3673 25.4568 20.2386 25.4568 17.6013C25.4568 16.2826 24.9294 15.0958 24.0628 14.2292L15.9623 5.92151L7.86185 14.2292C6.99529 15.0958 6.46781 16.2826 6.46781 17.6013C6.46781 20.2386 8.59654 22.3673 11.2339 22.3673C12.6464 22.3673 13.9167 21.7532 14.7911 20.7787C14.9169 20.6385 15.0344 20.4909 15.1431 20.3366C15.2598 20.1708 15.3662 19.9972 15.4613 19.8168C15.4851 19.7718 15.5081 19.7263 15.5305 19.6804C15.5442 19.6522 15.5577 19.6239 15.5708 19.5954C15.579 19.5777 15.5871 19.56 15.595 19.5423C15.7746 19.1411 15.9001 18.7108 15.9623 18.2606C16.0282 18.7108 16.156 19.1411 16.3368 19.5423C16.3447 19.5598 16.3527 19.5772 16.3607 19.5946C16.3742 19.6237 16.388 19.6525 16.4021 19.6812C16.4243 19.7265 16.4472 19.7715 16.4707 19.816C16.5645 19.9933 16.669 20.164 16.7834 20.3272ZM16.1128 20.5204C16.0432 20.2316 15.9926 19.9362 15.9623 19.6358C15.9324 19.9325 15.8827 20.2246 15.8144 20.5105C15.7541 20.7632 15.6793 21.0112 15.5908 21.2531C15.554 21.3538 15.5148 21.4535 15.4734 21.5521C15.0296 22.6073 14.323 23.5359 13.4309 24.2418C13.1217 24.4865 12.7901 24.7045 12.4396 24.8917C12.8254 25.0314 13.2205 25.1476 13.626 25.2394C14.3687 25.4078 15.1458 25.4945 15.9623 25.4945C16.7809 25.4945 17.5599 25.4073 18.3044 25.2382C18.7078 25.1465 19.1011 25.0307 19.4851 24.8917C19.1369 24.7024 18.8076 24.484 18.5002 24.2401C17.6058 23.5304 16.8973 22.6047 16.4524 21.5514C16.4087 21.4478 16.3675 21.3431 16.329 21.2372C16.2439 21.0036 16.1716 20.7643 16.1128 20.5204ZM16 4C9.36891 4 4 9.36892 4 16C4 22.6311 9.36891 28 16 28C22.6311 28 28 22.6311 28 16C28 9.36892 22.6311 4 16 4Z" fill="url(#paint1_linear_8_22141)"/>
  <defs>
    <linearGradient id="paint0_linear_8_22141" x1="16" y1="4" x2="16" y2="28" gradientUnits="userSpaceOnUse">
      <stop stop-color="#EAF0F5"/>
      <stop offset="1" stop-color="#BABCCC"/>
    </linearGradient>
    <linearGradient id="paint1_linear_8_22141" x1="16" y1="4" x2="16" y2="28" gradientUnits="userSpaceOnUse">
      <stop stop-color="white"/>
      <stop offset="1" stop-color="#EAF0F5"/>
    </linearGradient>
  </defs>
</svg>
